# xmcd
#
# Track frame offsets:
# 150
# 12922
# 26550
# 37677
# 51785
# 64255
# 79910
# 93577
# 108270
# 122742
# 137805
# 154457
# 169535
# 185262
# 198540
#
# Disc length: 2887 seconds
#
# Revision: 0
# Processed by: cddbd v1.5PL3 Copyright (c) Steve Scherf et al.
# Submitted via: plextools 2.11
#
DISCID=c40b450f
DTITLE=Various Artist - Bästa Dansbanden 3 [CD1]
DYEAR=1900
DGENRE=Pop
TTITLE0=Vikingarna - Höga Berg Och DJupa Hav
TTITLE1=Christina Lindberg - Vid Flodens Strand
TTITLE2=Stefan Borsch Orkester - Djupt In I Värmlandsskogen
TTITLE3=Wisez - Spanska Ögon
TTITLE4=Streaplers - Det Är Ingen Idé
TTITLE5=Matz Bladhs - En Kärleksaffär
TTITLE6=Leif Bloms - Ännu En Gång
TTITLE7=Lasse Stefanz - En Kärleksaffär
TTITLE8=Blackjack - Girl On A Swing
TTITLE9=Lotta and Anders Engbergs Orkester - Världens Bästa Servitris
TTITLE10=Thorleifs - Jag Tror På Dig
TTITLE11=Sven-Ingvars - Dansen Den Går På Grönan Äng
TTITLE12=Kikki Daniesson - Vägen Hem Till Dej
TTITLE13=Ingmar Nordströms  - Café Le Swing
TTITLE14=Paul Sahlin - Andante, Andante
EXTD=
EXTT0=
EXTT1=
EXTT2=
EXTT3=
EXTT4=
EXTT5=
EXTT6=
EXTT7=
EXTT8=
EXTT9=
EXTT10=
EXTT11=
EXTT12=
EXTT13=
EXTT14=
PLAYORDER=
